<svg width="20" height="15" viewBox="0 0 20 15" fill="none" xmlns="http://www.w3.org/2000/svg">
<path d="M19.1709 8.14416C19.3779 7.93711 19.4941 7.65633 19.4941 7.36356C19.4941 7.07079 19.3779 6.79001 19.1709 6.58296L12.925 0.337069C12.8231 0.231616 12.7013 0.147503 12.5666 0.0896384C12.4319 0.0317736 12.287 0.00131561 12.1404 4.16868e-05C11.9938 -0.00123224 11.8484 0.0267037 11.7127 0.0822188C11.577 0.137734 11.4538 0.219717 11.3501 0.323384C11.2464 0.42705 11.1645 0.550325 11.1089 0.686015C11.0534 0.821705 11.0255 0.967092 11.0268 1.11369C11.028 1.2603 11.0585 1.40517 11.1164 1.53988C11.1742 1.67458 11.2583 1.79642 11.3638 1.89827L15.725 6.25946L1.10339 6.25946C0.810566 6.25946 0.529733 6.37578 0.322674 6.58284C0.115615 6.7899 -0.000707626 7.07073 -0.000707626 7.36356C-0.000707626 7.65638 0.115615 7.93721 0.322674 8.14427C0.529733 8.35133 0.810566 8.46766 1.10339 8.46766L15.725 8.46766L11.3638 12.8289C11.1627 13.0371 11.0514 13.316 11.0539 13.6055C11.0564 13.895 11.1725 14.1719 11.3772 14.3766C11.5819 14.5813 11.8589 14.6974 12.1484 14.6999C12.4379 14.7025 12.7167 14.5912 12.925 14.39L19.1709 8.14416Z" fill="#151413"/>
</svg>
