<svg width="20" height="15" viewBox="0 0 20 15" fill="none" xmlns="http://www.w3.org/2000/svg">
<path d="M0.829125 6.85584C0.622138 7.06289 0.505859 7.34367 0.505859 7.63644C0.505859 7.92921 0.622138 8.20999 0.829125 8.41704L7.07502 14.6629C7.17687 14.7684 7.2987 14.8525 7.4334 14.9104C7.56811 14.9682 7.71299 14.9987 7.85959 15C8.00619 15.0012 8.15158 14.9733 8.28727 14.9178C8.42296 14.8623 8.54623 14.7803 8.6499 14.6766C8.75356 14.5729 8.83555 14.4497 8.89106 14.314C8.94658 14.1783 8.97451 14.0329 8.97324 13.8863C8.97197 13.7397 8.94151 13.5948 8.88364 13.4601C8.82578 13.3254 8.74167 13.2036 8.63621 13.1017L4.27502 8.74054L18.8966 8.74054C19.1894 8.74054 19.4703 8.62422 19.6773 8.41716C19.8844 8.2101 20.0007 7.92927 20.0007 7.63644C20.0007 7.34362 19.8844 7.06279 19.6773 6.85573C19.4703 6.64867 19.1894 6.53234 18.8966 6.53234L4.27502 6.53234L8.63621 2.17115C8.83733 1.96291 8.94862 1.68402 8.9461 1.39452C8.94359 1.10503 8.82747 0.828112 8.62276 0.623403C8.41805 0.418694 8.14113 0.302576 7.85164 0.30006C7.56215 0.297545 7.28325 0.408831 7.07502 0.609952L0.829125 6.85584Z" fill="#151413"/>
</svg>
