<svg width="39" height="29" viewBox="0 0 39 29" fill="none" xmlns="http://www.w3.org/2000/svg">
<g clip-path="url(#clip0_147_192)">
<path d="M8.74237 28.8572V13.9951L4.13318 9.77834L0 7.43835V26.2344C0 27.6856 1.17578 28.8572 2.62277 28.8572H8.74237Z" fill="#4285F4"/>
<path d="M29.7239 28.8572H35.8435C37.2948 28.8572 38.4663 27.6813 38.4663 26.2344V7.43854L33.7848 10.1187L29.7239 13.9951V28.8572Z" fill="#34A853"/>
<path d="M8.74242 13.9951L8.11523 8.18806L8.74242 2.63013L19.2332 10.4983L29.724 2.63013L30.4256 7.88799L29.724 13.9951L19.2332 21.8633L8.74242 13.9951Z" fill="#EA4335"/>
<path d="M29.7239 2.63015V13.9951L38.4663 7.43844V3.94146C38.4663 0.698119 34.7639 -1.15082 32.1719 0.794284L29.7239 2.63015Z" fill="#FBBC04"/>
<path d="M0 7.43845L4.02078 10.4541L8.74237 13.9952V2.63016L6.29435 0.794292C3.69788 -1.15096 0 0.698126 0 3.94132V7.43845Z" fill="#C5221F"/>
</g>
<defs>
<clipPath id="clip0_147_192">
<rect width="38.4663" height="29" fill="white"/>
</clipPath>
</defs>
</svg>
