<svg width="56" height="56" viewBox="0 0 56 56" fill="none" xmlns="http://www.w3.org/2000/svg">
<path d="M53.662 0H26.6953C26.6953 3.22853 27.9778 6.32484 30.2608 8.60775C32.5437 10.8907 35.64 12.1732 38.8685 12.1732H43.8361V16.9695C43.8405 23.6864 49.2844 29.1306 56.0013 29.135V2.33936C56.0013 1.04773 54.9543 0 53.662 0Z" fill="#2684FF"/>
<path d="M40.3181 13.4365H13.3516C13.3557 20.1535 18.7997 25.5976 25.5169 25.602H30.4845V30.4137C30.493 37.1306 35.9407 42.571 42.6577 42.571V15.7763C42.6577 14.4843 41.6101 13.4367 40.3181 13.4367V13.4365Z" fill="url(#paint0_linear_105_69)"/>
<path d="M26.9667 26.8654H0C0 33.5885 5.45032 39.0387 12.1732 39.0387H17.1563V43.8347C17.1607 50.5455 22.5953 55.9873 29.3063 56V29.205C29.3063 27.913 28.2588 26.8654 26.9667 26.8654Z" fill="url(#paint1_linear_105_69)"/>
<defs>
<linearGradient id="paint0_linear_105_69" x1="42.0806" y1="13.4834" x2="30.6792" y2="25.3804" gradientUnits="userSpaceOnUse">
<stop offset="0.18" stop-color="#0052CC"/>
<stop offset="1" stop-color="#2684FF"/>
</linearGradient>
<linearGradient id="paint1_linear_105_69" x1="29.5012" y1="26.998" x2="16.3125" y2="39.9739" gradientUnits="userSpaceOnUse">
<stop offset="0.18" stop-color="#0052CC"/>
<stop offset="1" stop-color="#2684FF"/>
</linearGradient>
</defs>
</svg>
