<svg width="20" height="21" viewBox="0 0 20 21" fill="none" xmlns="http://www.w3.org/2000/svg">
<path d="M10.2816 19.8952C15.4077 19.8952 19.5632 15.6654 19.5632 10.4476C19.5632 5.22983 15.4077 1 10.2816 1C5.1555 1 1 5.22983 1 10.4476C1 15.6654 5.1555 19.8952 10.2816 19.8952Z" fill="url(#paint0_radial_2038_45)" stroke="#39813F" stroke-width="0.548665"/>
<path d="M2.68394 14.0605C1.5462 13.2268 0.454117 11.0035 1.81917 9.05817C3.77433 6.27166 7.42587 4.74393 8.63973 4.34988C8.83862 4.25186 9.50957 4.05579 10.0555 4.05579C10.6016 4.05579 10.6017 4.05579 11.4206 4.33368C12.0758 4.556 12.3308 4.70425 12.2399 4.88952L11.6937 6.00115C11.5283 6.33781 10.9656 6.83489 10.8746 6.83489L9.50957 7.39072C6.18766 8.78026 4.77694 9.61398 3.73036 11.0035C2.60276 12.5007 2.68394 13.5047 2.68394 14.0605Z" fill="#ACC576"/>
<path d="M2.63849 15.4497C3.51222 16.3391 5.73275 16.0056 6.73384 16.0056C6.78052 16.0056 5.04117 15.1163 4.82265 14.8939C4.6043 14.6716 4.73166 14.4307 4.82265 14.3381L5.91473 12.9486C6.18788 12.6707 3.73057 12.9486 2.63849 12.9486C1.54641 12.9486 1.45542 12.3927 1.27344 11.8369C1.54642 12.6707 1.76476 14.5604 2.63849 15.4497Z" fill="#39813F"/>
<path d="M16.8196 4.16456C16.0389 3.18971 13.6044 3.10816 12.6084 3.0049C12.562 3.00008 14.204 4.06425 14.3991 4.30797C14.5943 4.55167 14.4435 4.77814 14.3438 4.86092L13.119 6.13066C12.8196 6.37898 15.292 6.35598 16.3783 6.46864C17.4648 6.58129 17.5 7.14363 17.6258 7.71536C17.4372 6.85776 17.6003 5.13941 16.8196 4.16456Z" fill="#ACC576"/>
<path d="M16.8325 4.05566C19.5628 6.55656 18.9303 9.48653 17.3787 11.2811C15.1559 13.8515 11.0599 14.9343 9.81309 15.2011C9.6054 15.2781 8.91839 15.4039 8.37514 15.3476C7.83206 15.2913 7.83206 15.2913 7.04476 14.9303C6.41508 14.6416 6.17627 14.4678 6.28519 14.2929L6.93922 13.2433C7.13727 12.9254 7.74648 12.4889 7.83714 12.4983L9.25057 12.0862C12.6936 11.0465 14.1801 10.3626 15.3596 9.08812C16.6304 7.71497 18.1976 6.83448 16.8325 4.05566Z" fill="#39813F"/>
<defs>
<radialGradient id="paint0_radial_2038_45" cx="0" cy="0" r="1" gradientUnits="userSpaceOnUse" gradientTransform="translate(10.2816 10.4476) rotate(90) scale(9.72684 9.55591)">
<stop stop-color="white"/>
<stop offset="1" stop-color="#EBEBD1"/>
</radialGradient>
</defs>
</svg>
