<svg width="38" height="37" viewBox="0 0 38 37" fill="none" xmlns="http://www.w3.org/2000/svg">
<g clip-path="url(#clip0_147_189)">
<path d="M32.0061 31.5343H26.5321V22.9616C26.5321 20.9174 26.4956 18.2858 23.6851 18.2858C20.834 18.2858 20.3977 20.5132 20.3977 22.8128V31.5338H14.9239V13.9048H20.1788V16.314H20.2524C20.7783 15.4148 21.5383 14.6751 22.4513 14.1736C23.3644 13.6722 24.3963 13.4277 25.4373 13.4663C30.9855 13.4663 32.0084 17.1157 32.0084 21.8634L32.0061 31.5343ZM8.74718 11.4952C6.99275 11.4955 5.57023 10.0734 5.56995 8.319C5.56966 6.56456 6.99159 5.14205 8.74603 5.14176C10.5005 5.14133 11.923 6.56341 11.9233 8.31784C11.9234 9.16036 11.5889 9.96843 10.9933 10.5643C10.3976 11.1602 9.58969 11.495 8.74718 11.4952ZM11.4843 31.5345H6.00448V13.9048H11.4841L11.4843 31.5345ZM34.7351 0.0579867H3.25384C1.76595 0.0412462 0.545772 1.23314 0.527588 2.72103V34.3336C0.545194 35.8222 1.76523 37.0153 3.25369 36.9997H34.7351C36.2267 37.0181 37.4515 35.8251 37.4722 34.3336V2.71857C37.451 1.2278 36.226 0.0360509 34.7351 0.0555334" fill="#0A66C2"/>
</g>
<defs>
<clipPath id="clip0_147_189">
<rect width="36.9446" height="36.9446" fill="white" transform="translate(0.527832 0.0554199)"/>
</clipPath>
</defs>
</svg>
