<svg width="53" height="53" viewBox="0 0 53 53" fill="none" xmlns="http://www.w3.org/2000/svg">
<path d="M11.0551 33.1555C11.0551 36.2037 8.59361 38.6674 5.54805 38.6674C2.50249 38.6674 0.0410156 36.2037 0.0410156 33.1555C0.0410156 30.1072 2.50249 27.6436 5.54805 27.6436H11.0551V33.1555ZM13.8086 33.1555C13.8086 30.1072 16.2701 27.6436 19.3156 27.6436C22.3612 27.6436 24.8227 30.1072 24.8227 33.1555V46.9353C24.8227 49.9836 22.3612 52.4472 19.3156 52.4472C16.2701 52.4472 13.8086 49.9836 13.8086 46.9353V33.1555Z" fill="#E01E5A"/>
<path d="M19.3144 11.0239C16.2688 11.0239 13.8073 8.56019 13.8073 5.51193C13.8073 2.46367 16.2688 0 19.3144 0C22.3599 0 24.8214 2.46367 24.8214 5.51193V11.0239H19.3144ZM19.3144 13.8216C22.3599 13.8216 24.8214 16.2852 24.8214 19.3335C24.8214 22.3818 22.3599 24.8454 19.3144 24.8454H5.50508C2.45952 24.8454 -0.00195312 22.3818 -0.00195312 19.3335C-0.00195312 16.2852 2.45952 13.8216 5.50508 13.8216H19.3144Z" fill="#36C5F0"/>
<path d="M41.387 19.3335C41.387 16.2852 43.8484 13.8216 46.894 13.8216C49.9396 13.8216 52.401 16.2852 52.401 19.3335C52.401 22.3818 49.9396 24.8454 46.894 24.8454H41.387V19.3335ZM38.6335 19.3335C38.6335 22.3818 36.172 24.8454 33.1264 24.8454C30.0809 24.8454 27.6194 22.3818 27.6194 19.3335V5.51193C27.6194 2.46367 30.0809 0 33.1264 0C36.172 0 38.6335 2.46367 38.6335 5.51193V19.3335Z" fill="#2EB67D"/>
<path d="M33.1262 41.4234C36.1717 41.4234 38.6332 43.887 38.6332 46.9353C38.6332 49.9836 36.1717 52.4472 33.1262 52.4472C30.0806 52.4472 27.6191 49.9836 27.6191 46.9353V41.4234H33.1262ZM33.1262 38.6674C30.0806 38.6674 27.6191 36.2037 27.6191 33.1555C27.6191 30.1072 30.0806 27.6436 33.1262 27.6436H46.9355C49.981 27.6436 52.4425 30.1072 52.4425 33.1555C52.4425 36.2037 49.981 38.6674 46.9355 38.6674H33.1262Z" fill="#ECB22E"/>
</svg>
