<svg width="34" height="34" viewBox="0 0 34 34" fill="none" xmlns="http://www.w3.org/2000/svg">
<g clip-path="url(#clip0_147_182)">
<path d="M0.719965 16.7966C0.719174 19.6532 1.46559 22.4425 2.8849 24.9011L0.584229 33.3012L9.18069 31.0472C11.5584 32.3415 14.2224 33.0198 16.9295 33.02H16.9366C25.8735 33.02 33.1483 25.7478 33.1521 16.8093C33.1539 12.478 31.4686 8.40515 28.4068 5.34093C25.3455 2.27698 21.274 0.588708 16.936 0.586731C7.99808 0.586731 0.723787 7.85851 0.720097 16.7966" fill="url(#paint0_linear_147_182)"/>
<path d="M0.141008 16.7913C0.140085 19.7507 0.913256 22.6398 2.38316 25.1864L0 33.8876L8.90471 31.5528C11.3582 32.8905 14.1207 33.5958 16.9316 33.5969H16.9389C26.1963 33.5969 33.7325 26.0631 33.7364 16.8047C33.738 12.3178 31.9922 8.09846 28.8209 4.92447C25.6493 1.75087 21.4323 0.00184496 16.9389 0C7.67978 0 0.144698 7.53271 0.141008 16.7913ZM5.44409 24.7478L5.1116 24.22C3.71391 21.9976 2.97619 19.4294 2.97724 16.7923C2.98014 9.09685 9.24299 2.83597 16.9441 2.83597C20.6736 2.83755 24.1785 4.29138 26.8147 6.92915C29.4507 9.56718 30.9013 13.0739 30.9003 16.8036C30.8969 24.4991 24.6339 30.7608 16.9389 30.7608H16.9333C14.4277 30.7595 11.9704 30.0866 9.82732 28.815L9.31732 28.5126L4.03309 29.898L5.44409 24.7478Z" fill="url(#paint1_linear_147_182)"/>
<path d="M12.7405 9.77147C12.4261 9.07262 12.0952 9.05852 11.7962 9.04626C11.5513 9.03572 11.2714 9.03651 10.9918 9.03651C10.7119 9.03651 10.2571 9.14181 9.87268 9.56154C9.48787 9.98166 8.40356 10.9969 8.40356 13.0618C8.40356 15.1267 9.9076 17.1225 10.1173 17.4028C10.3272 17.6825 13.0208 22.0556 17.2869 23.738C20.8324 25.136 21.5539 24.858 22.3234 24.7879C23.093 24.718 24.8067 23.7729 25.1563 22.7928C25.5062 21.8129 25.5062 20.9729 25.4013 20.7973C25.2964 20.6225 25.0165 20.5174 24.5968 20.3076C24.1771 20.0978 22.1135 19.0823 21.7288 18.9422C21.344 18.8023 21.0642 18.7324 20.7843 19.1527C20.5044 19.5723 19.7007 20.5174 19.4557 20.7973C19.211 21.0779 18.966 21.1128 18.5464 20.9029C18.1264 20.6923 16.7747 20.2497 15.171 18.8199C13.9233 17.7074 13.0809 16.3336 12.8361 15.9133C12.5912 15.4937 12.8099 15.2663 13.0203 15.0571C13.2089 14.8691 13.4402 14.567 13.6502 14.3221C13.8595 14.0769 13.9294 13.9021 14.0693 13.6222C14.2094 13.342 14.1393 13.0969 14.0345 12.8869C13.9294 12.677 13.1137 10.6013 12.7405 9.77147Z" fill="white"/>
</g>
<defs>
<linearGradient id="paint0_linear_147_182" x1="1628.98" y1="3272.03" x2="1628.98" y2="0.586731" gradientUnits="userSpaceOnUse">
<stop stop-color="#1FAF38"/>
<stop offset="1" stop-color="#60D669"/>
</linearGradient>
<linearGradient id="paint1_linear_147_182" x1="1686.82" y1="3388.76" x2="1686.82" y2="0" gradientUnits="userSpaceOnUse">
<stop stop-color="#F9F9F9"/>
<stop offset="1" stop-color="white"/>
</linearGradient>
<clipPath id="clip0_147_182">
<rect width="33.7364" height="34" fill="white"/>
</clipPath>
</defs>
</svg>
